<svg xmlns="http://www.w3.org/2000/svg" width="66" height="100" viewBox="0 0 66 100" version="1.1"><path d="M 5 19.500 L 5 35 10.500 35 L 16 35 16 31 C 16 25.962, 17.358 25.830, 18.574 30.750 L 19.500 34.500 26 34.500 L 32.500 34.500 32.776 19.250 L 33.052 4 27.026 4 L 21 4 21 8 C 21 10.200, 20.555 12, 20.012 12 C 19.468 12, 18.736 10.200, 18.384 8 L 17.744 4 11.372 4 L 5 4 5 19.500 M 38.122 16.750 C 36.893 23.762, 35.636 30.738, 35.328 32.250 C 34.775 34.958, 34.843 35, 39.765 35 L 44.764 35 46.449 25.250 C 47.376 19.887, 48.359 14.825, 48.634 14 C 49.436 11.595, 50.630 14.597, 51.318 20.750 C 51.849 25.492, 51.717 26, 49.953 26 C 48.305 26, 48 26.703, 48 30.500 L 48 35 56.117 35 C 63.938 35, 64.213 34.921, 63.669 32.843 C 63.359 31.657, 62.113 24.682, 60.901 17.343 L 58.697 4 49.526 4 L 40.355 4 38.122 16.750 M 5 53.500 L 5 69 12 69 L 19 69 19 65.107 C 19 60.587, 19.929 60, 27.082 60 L 32 60 32 56.048 L 32 52.095 25.750 51.798 C 20.993 51.571, 19.500 51.142, 19.500 50 C 19.500 48.858, 20.993 48.429, 25.750 48.202 L 32 47.905 32 42.952 L 32 38 18.500 38 L 5 38 5 53.500 M 36 43 L 36 48 40 48 L 44 48 44 60.500 L 44 73 40 73 L 36 73 36 78 L 36 83 48.500 83 L 61 83 61 78 L 61 73 57.500 73 L 54 73 54 60.500 L 54 48 57.500 48 L 61 48 61 43 L 61 38 48.500 38 L 36 38 36 43 M 44 90.945 L 44 96 49.055 96 L 54.110 96 53.805 91.250 L 53.500 86.500 48.750 86.195 L 44 85.890 44 90.945" stroke="none" fill="#7dd757" fill-rule="evenodd"/><path d="M 0 50.013 L 0 100.027 33.250 99.763 L 66.500 99.500 66.759 49.750 L 67.019 0 33.509 0 L 0 0 0 50.013 M 0.464 50.500 C 0.464 78, 0.592 89.106, 0.749 75.180 C 0.906 61.255, 0.906 38.755, 0.749 25.180 C 0.592 11.606, 0.464 23, 0.464 50.500 M 5 19.500 L 5 35 10.500 35 L 16 35 16 31 C 16 25.962, 17.358 25.830, 18.574 30.750 L 19.500 34.500 26 34.500 L 32.500 34.500 32.776 19.250 L 33.052 4 27.026 4 L 21 4 21 8 C 21 10.200, 20.555 12, 20.012 12 C 19.468 12, 18.736 10.200, 18.384 8 L 17.744 4 11.372 4 L 5 4 5 19.500 M 38.122 16.750 C 36.893 23.762, 35.636 30.738, 35.328 32.250 C 34.775 34.958, 34.843 35, 39.765 35 L 44.764 35 46.449 25.250 C 47.376 19.887, 48.359 14.825, 48.634 14 C 49.436 11.595, 50.630 14.597, 51.318 20.750 C 51.849 25.492, 51.717 26, 49.953 26 C 48.305 26, 48 26.703, 48 30.500 L 48 35 56.117 35 C 63.938 35, 64.213 34.921, 63.669 32.843 C 63.359 31.657, 62.113 24.682, 60.901 17.343 L 58.697 4 49.526 4 L 40.355 4 38.122 16.750 M 5 53.500 L 5 69 12 69 L 19 69 19 65.107 C 19 60.587, 19.929 60, 27.082 60 L 32 60 32 56.048 L 32 52.095 25.750 51.798 C 20.993 51.571, 19.500 51.142, 19.500 50 C 19.500 48.858, 20.993 48.429, 25.750 48.202 L 32 47.905 32 42.952 L 32 38 18.500 38 L 5 38 5 53.500 M 36 43 L 36 48 40 48 L 44 48 44 60.500 L 44 73 40 73 L 36 73 36 78 L 36 83 48.500 83 L 61 83 61 78 L 61 73 57.500 73 L 54 73 54 60.500 L 54 48 57.500 48 L 61 48 61 43 L 61 38 48.500 38 L 36 38 36 43 M 44 90.945 L 44 96 49.055 96 L 54.110 96 53.805 91.250 L 53.500 86.500 48.750 86.195 L 44 85.890 44 90.945" stroke="none" fill="#070c06" fill-rule="evenodd"/></svg>