<?xml version="1.0" encoding="utf-8"?>
<!-- Generator: Adobe Illustrator 26.3.1, SVG Export Plug-In . SVG Version: 6.00 Build 0)  -->
<svg version="1.1" id="Layer_1" xmlns="http://www.w3.org/2000/svg" xmlns:xlink="http://www.w3.org/1999/xlink" x="0px" y="0px"
	 viewBox="0 0 512.8 375.1" style="enable-background:new 0 0 512.8 375.1;" xml:space="preserve">
<style type="text/css">
	.st0{fill:none;}
	.st1{fill-rule:evenodd;clip-rule:evenodd;fill:#008BD0;}
	.st2{clip-path:url(#SVGID_00000149345144963062267400000000802810229715242165_);}
	.st3{fill-rule:evenodd;clip-rule:evenodd;fill:#F8A600;}
</style>
<rect x="6" y="57" class="st0" width="506.8" height="139"/>
<path class="st1" d="M255.5,116.9c16.1-13.2,36.7-22.4,60.4-28.9c34.1-10.7,67.6-11.6,100.9-6.5c56.5,13.1,70.5,36.2,60.6,65.1
	c-14.4,27.9-36.7,37.9-58.7,48.6c13.8-4.3,27.6-10.1,41.5-16.4c30.2-17.9,52.8-38,52.4-65.2c-1.1-19.4-15.7-33.6-39.6-44.2
	c-0.8-0.3-1.6-0.6-2.5-0.9c-5.5,2.9-11.7,4.6-18.4,4.6c-12.6,0-23.8-5.9-31-15.2c-15.2-1.2-31.4-0.5-49,2.5
	C341.6,64.1,312.8,74,285.7,90C272.9,98.1,263.3,107.2,255.5,116.9z"/>
<g>
	<defs>
		<rect id="SVGID_1_" x="3" y="0" width="483" height="375.1"/>
	</defs>
	<clipPath id="SVGID_00000057108457675217557870000016418063681315368075_">
		<use xlink:href="#SVGID_1_"  style="overflow:visible;"/>
	</clipPath>
	<g style="clip-path:url(#SVGID_00000057108457675217557870000016418063681315368075_);">
		<path class="st3" d="M428.9,272.7h14.7V368h-14.7V272.7z M29,283.9c-1-0.8-2.1-1.7-3.1-2.5c11.7-3.5,19.8-18.6,20-59.5
			c-19.1,6-33.6-0.3-41.2-24.5c-4.7-28.5,2.8-47,18.6-58.6c8.7-5.8,16.5-6.8,23.4-2.8c4.4-1,8.8-2.1,13.2-3.1
			c-0.3,32.3-0.6,64.6-0.8,97C57.7,259.4,48.2,278.2,29,283.9z M45.6,211.3c-0.2-21.7-0.4-43.5-0.5-65.2
			c-14.9-7.6-20.3,1.9-24.5,13.9c-2.4,13.1-4.5,26.2,0.3,41C26.5,216,34.7,219.4,45.6,211.3z M119.8,182.3c4-22.3-2.2-34.1-11.3-43
			c-8.3-5.9-16.5-5.2-24.8,0.2c-9.8,10.3-16.4,23.6-15.8,44c2.3,21.3,8.8,35.9,22.8,38.5c12.5,2.5,24.2,1.5,32.7-11.8
			c-1.2-3.5-2.4-7-3.7-10.4c-6.5,13.5-14.9,19-25.4,14.8c-7.5-4.6-12.2-13.2-11-30.8C95.2,185.8,107.4,185.2,119.8,182.3z
			 M83.1,175.9c8.4,0.8,16.8,1.8,25.2-0.2c0.1-8.7-0.7-17.2-2.6-25.6c-4.7-11-14.3-10-18.8,0C84.8,158.5,83.9,167.1,83.1,175.9z
			 M232.7,170c3.2-3.7,6.5-7.5,9.7-11.2c-2.6-5.8-2.7-9.4-7.8-17.5c-5.1-8.2-20.2-9.9-30.8,0.9c-20.3,14.8-20.1,77,9.9,80.1
			c14.2,11.6,8.3,20.1,2.8,19c-1.4,3.4-2.9,6.7-4.3,10.1c6.8-0.2,13.3-1,18.1-6.1c4.6-6.1,6.2-13.5-1.5-23.5
			c3.9-0.5,8.2-1.4,14.5-10.5c-0.9-2.5-1.9-5.5-2.8-7.9c-5.7,8.3-11.9,14.1-19.6,13c-10.6-3.6-17.1-12.1-18.3-26.8
			c-0.8-9.4-1.2-26.5,4.5-36.4c3.8-7.4,8.3-9.9,11.7-10.6C229.3,140.5,231.8,154.9,232.7,170z M285.1,232.6c4.7,0,9.4,0,14.1,0
			c-0.2,45.2,0.7,90.4,2.7,135.5c-5.5,0-11.1,0-16.6,0C285.6,318.3,288.9,262.6,285.1,232.6z M254,232.6c4.7,0,9.4,0,14.1,0
			c-0.2,45.2,0.7,90.4,2.7,135.5c-5.5,0-11.1,0-16.6,0C254.5,318.3,257.8,262.6,254,232.6z M254,96.5c4.4,0,8.8,0,13.2,0
			c0,1.8,0,3.5,0,5.3l-0.6,0.6l-0.9,0.9l-0.9,0.9l-0.9,0.9l-0.9,0.9l-0.9,0.9l-0.9,0.9l-0.8,0.9l-0.8,0.9l-0.8,0.9l-0.8,0.9
			l-0.8,0.9l-0.8,0.9l-0.8,0.9l-0.3,0.3C255.1,107.7,254.7,101.7,254,96.5z M267.2,110.6c0,37.6,0.9,75.3,2.6,112.9
			c-5.2,0-10.4,0-15.5,0c0.2-36,2.1-75.3,1.3-104.3l2.6-2.1l1.5-1.2l1.6-1.2l1.6-1.1l1.6-1.1l1.6-1.1L267.2,110.6z M133.1,223.2
			c4.9,0,9.8,0,14.6,0c-1-24.2-1-48.4-0.4-72.6c0.8-9,13.6-12.3,20.4,0c2.1,22,2.3,46.2,0.8,72.4c4.9,0,9.9,0,14.8,0
			c-0.5-23.2-1-46.3-1.5-69.5c-1.6-21-22-21.4-32.3-15.2c-5.8-0.8-11.6-1.9-17.4-2.8c1,5.7,1.3,11.9,1.4,18.2
			C133.4,176.8,133.2,200,133.1,223.2z M280,134.1h14.7v89.4H280V134.1z M288,113.3c3.7,0,6.7,3,6.7,6.7c0,3.7-3,6.7-6.7,6.7
			c-3.7,0-6.7-3-6.7-6.7C281.3,116.3,284.3,113.3,288,113.3z M303.7,96.3c-1.1,0,8.8,0,13.1,0c-0.4,25-0.9,50.4,0,75.3
			c9.1-13.6,18-27.6,27-41.2c2,2.1,4,4.3,5.9,6.4c-6.8,9.7-13.3,19.7-19.6,30c5.9,18.9,13.8,37.8,23,56.7c-4.9,0-9.7,0-14.6,0
			c-3.8-14.1-9.9-27.7-17.1-41.1c-4.2,3.5-7.9,7.7-7.4,16.6c0.4,8,0.8,16,1.2,24c-4.4,0-8.8,0-13.1,0
			C303.4,222.7,304.8,96.3,303.7,96.3z M117.5,232.1c-1.1,0,9.4,0,14,0c-0.4,26.7-1,53.9,0,80.6c9.7-14.6,19.2-29.5,28.9-44
			c2.1,2.3,4.2,4.6,6.4,6.9c-7.3,10.4-14.3,21-20.9,32c6.3,20.2,14.8,40.4,24.6,60.6c-5.2,0-10.4,0-15.6,0
			c-4.1-15.1-10.6-29.6-18.3-44c-4.5,3.8-8.4,8.3-7.9,17.7c0.4,8.6,0.9,17.1,1.3,25.7c-4.7,0-9.4,0-14,0
			C117.2,367.2,118.6,232,117.5,232.1z M210.1,273.1c21.8,0,32.7,21.2,32.7,47.3s-10,47.3-32.7,47.3c-22.6,0-32.7-21.2-32.7-47.3
			S188.3,273.1,210.1,273.1z M210.1,279.6c14,0,18.9,18.3,18.9,40.8s-3.6,40.8-18.9,40.8s-18.9-18.3-18.9-40.8
			S196.1,279.6,210.1,279.6z M327.2,286.2l-4.9-7.9c3.9-3.2,10.1-6.2,15-6c7.3,0.3,17.6,5.7,18.6,14.9c2.7,23.2,4.3,62.2,10.5,81
			c-6.3-0.7-12.6-1.4-18.9-2.1c-14.9,5-25.5,1.6-31.7-10.3c-7.5-17.5-3.5-32.1,5.8-45.3c6.4-6.8,14.3-10.4,23.9-10.4
			c-0.5-2.8-0.8-3.8-1.6-8.4c-0.8-4.7-3.9-10.2-8.4-11.4C331.7,279.3,329.1,281.7,327.2,286.2z M344.8,310
			c-4.7-1.6-10.5,0.2-13.7,6.1c-5.9,11.4-5.1,23.9,2.4,37.5c5.2,7.4,9.7,6.5,14.7,3.2C350.2,355.5,349.5,311.6,344.8,310z
			 M375,367.8c-1.4-0.2,10.1,0,15.2,0c-2-30-2.3-60,27.1-89.5c-1.5-1.8-2.9-3.5-4.4-5.3c-7.6,2.7-15.5,13-23.5,30.8
			c0-10.1,0-20.2,0-30.3c-4.5,0-9,0-13.4,0C376.8,273.5,376.4,368,375,367.8z M452-0.1c18.7,0,33.9,15.2,33.9,33.9
			c0,18.7-15.2,33.9-33.9,33.9c-18.7,0-33.9-15.2-33.9-33.9C418.1,15.1,433.4-0.1,452-0.1z M354.3,223.3
			c1.8-30.8,10.4-47.6,21.5-59.3c13.7-9.8,31.9-19.1,57.7-1.2c4.4,4.7,8.7,9.2,13,15c6-4.6,11.6-9.3,16.8-14.2
			c-1.6-3.6-3.4-7.2-5.4-10.7c-21.3-35.7-46.4-41.7-73-23.1c-14.6,12.6-23.4,30.2-27.5,52C354.3,195.7,353.6,209.5,354.3,223.3z
			 M451.4,185.4c3.1,5.3,6.1,11.8,8.9,19.9c7.1,20.3,12.7,44.6,10.6,88.4c-1.9,28.1-8.4,55.4-24,81.3c17.2-22.1,26.5-49.5,30.9-80.1
			c5.6-35.5,2.3-67.7-3.9-98.8c-1.5-6.5-3.3-12.9-5.4-19.1C462.8,180,457.1,182.8,451.4,185.4z"/>
	</g>
</g>
</svg>
