<svg width="58" height="48" viewBox="0 0 58 48" fill="none" xmlns="http://www.w3.org/2000/svg">
<path d="M56.618 0.958496H35.9102C35.2758 0.958496 34.7547 1.46826 34.7547 2.11397V22.8331C34.7547 23.4675 35.2645 23.9886 35.9102 23.9886H52.0188V24.0112C52.0188 28.4405 49.8211 32.5413 46.1395 34.9995L36.0348 41.7397C34.7094 42.6233 34.3809 44.3905 35.2418 45.7272C36.6125 47.8796 38.7422 46.8487 39.2293 46.5202L49.334 39.78C54.6129 36.2456 57.7735 30.355 57.7735 23.9999V22.8218V2.10264C57.7735 1.46826 57.2637 0.958496 56.618 0.958496Z" fill="url(#paint0_linear_97_535)"/>
<path d="M22.0898 0.958496H1.38203C0.747656 0.958496 0.226562 1.46826 0.226562 2.10264V22.8218C0.226562 23.4562 0.747656 23.9772 1.38203 23.9772H17.4906V23.9999C17.4906 28.4292 15.293 32.53 11.6113 34.9882L1.50664 41.7284C0.18125 42.612 -0.090625 44.3452 0.713672 45.7159C1.90313 47.7776 4.21406 46.8374 4.70117 46.5089L14.8059 39.7687C20.0961 36.2456 23.2453 30.355 23.2453 23.9999V22.8218V2.10264C23.2453 1.46826 22.7355 0.958496 22.0898 0.958496Z" fill="url(#paint1_linear_97_535)"/>
<defs>
<linearGradient id="paint0_linear_97_535" x1="59.8348" y1="23.5369" x2="34.7547" y2="23.5369" gradientUnits="userSpaceOnUse">
<stop stop-color="#FFE451"/>
<stop offset="1" stop-color="#ADFF35"/>
</linearGradient>
<linearGradient id="paint1_linear_97_535" x1="25.3067" y1="23.5141" x2="0.226563" y2="23.5141" gradientUnits="userSpaceOnUse">
<stop stop-color="#FFE451"/>
<stop offset="1" stop-color="#ADFF35"/>
</linearGradient>
</defs>
</svg>
