<svg width="44" height="44" viewBox="0 0 44 44" fill="none" xmlns="http://www.w3.org/2000/svg">
<g id="003-phone-call 1" clip-path="url(#clip0_270_220)">
<g id="Group 258">
<g id="Group">
<g id="Group_2">
<path id="Vector" d="M34.7731 27.2564C33.8723 26.3185 32.7858 25.817 31.6343 25.817C30.492 25.817 29.3962 26.3092 28.4583 27.2471L25.5238 30.1724C25.2823 30.0424 25.0409 29.9216 24.8087 29.8009C24.4744 29.6338 24.1586 29.4759 23.8893 29.3087C21.1405 27.5629 18.6425 25.2877 16.2465 22.3439C15.0857 20.8766 14.3057 19.6415 13.7392 18.3878C14.5007 17.6913 15.2065 16.967 15.8937 16.2705C16.1537 16.0105 16.4137 15.7412 16.6737 15.4811C18.6239 13.531 18.6239 11.005 16.6737 9.05488L14.1385 6.51967C13.8506 6.23179 13.5535 5.93462 13.2749 5.63745C12.7177 5.06169 12.1326 4.46735 11.529 3.91016C10.6282 3.01866 9.55098 2.54504 8.41803 2.54504C7.28507 2.54504 6.18927 3.01866 5.26062 3.91016C5.25133 3.91945 5.25133 3.91945 5.24204 3.92873L2.08463 7.114C0.895961 8.30268 0.218047 9.75137 0.0694626 11.4322C-0.153413 14.1439 0.645226 16.6698 1.25813 18.3228C2.76255 22.381 5.00988 26.142 8.36231 30.1724C12.4298 35.0292 17.3238 38.8645 22.9143 41.5669C25.0501 42.5791 27.9011 43.7771 31.0864 43.9814C31.2814 43.9907 31.4857 44 31.6714 44C33.8166 44 35.6182 43.2292 37.0297 41.6969C37.039 41.6784 37.0576 41.6691 37.0669 41.6505C37.5498 41.0655 38.107 40.5361 38.692 39.9696C39.0913 39.5889 39.4999 39.1896 39.8993 38.7717C40.8186 37.8152 41.3015 36.7008 41.3015 35.5586C41.3015 34.407 40.8093 33.3019 39.8714 32.3733L34.7731 27.2564ZM38.0977 37.0351C38.0884 37.0351 38.0884 37.0444 38.0977 37.0351C37.7355 37.4251 37.3641 37.778 36.9647 38.1681C36.3611 38.7438 35.7482 39.3475 35.1724 40.0254C34.2345 41.0283 33.1294 41.5019 31.6807 41.5019C31.5414 41.5019 31.3928 41.5019 31.2535 41.4926C28.4954 41.3162 25.9324 40.239 24.0101 39.3196C18.7539 36.7751 14.1385 33.1626 10.3032 28.5844C7.13649 24.7676 5.01917 21.2388 3.61691 17.4499C2.75326 15.1375 2.43752 13.336 2.57682 11.6365C2.66968 10.55 3.08758 9.64922 3.85836 8.87844L7.02505 5.71174C7.48009 5.28456 7.96299 5.0524 8.4366 5.0524C9.02165 5.0524 9.49526 5.40529 9.79243 5.70245C9.80172 5.71174 9.811 5.72103 9.82029 5.73031C10.3868 6.25964 10.9254 6.80755 11.4919 7.3926C11.7797 7.68977 12.0769 7.98693 12.3741 8.29339L14.9093 10.8286C15.8937 11.813 15.8937 12.7231 14.9093 13.7074C14.64 13.9767 14.38 14.246 14.1107 14.5061C13.3306 15.3047 12.5877 16.0476 11.7797 16.772C11.7612 16.7905 11.7426 16.7998 11.7333 16.8184C10.9347 17.617 11.0833 18.3971 11.2504 18.9264C11.2597 18.9543 11.269 18.9821 11.2783 19.01C11.9376 20.6073 12.8663 22.1117 14.2778 23.904L14.2871 23.9133C16.8502 27.0707 19.5525 29.5316 22.5335 31.4168C22.9143 31.6582 23.3043 31.8532 23.6757 32.039C24.0101 32.2061 24.3258 32.364 24.5951 32.5312C24.6323 32.5497 24.6694 32.5776 24.7066 32.5962C25.0223 32.754 25.3195 32.8283 25.6259 32.8283C26.3967 32.8283 26.8796 32.3454 27.0375 32.1876L30.2134 29.0116C30.5292 28.6958 31.0307 28.3151 31.6157 28.3151C32.1915 28.3151 32.6651 28.6773 32.953 28.993C32.9622 29.0023 32.9622 29.0023 32.9715 29.0116L38.0884 34.1284C39.0449 35.0757 39.0449 36.0507 38.0977 37.0351Z" fill="#F9F9F9"/>
<path id="Vector_2" d="M23.778 10.4664C26.2111 10.875 28.4213 12.0266 30.1857 13.791C31.9501 15.5554 33.0924 17.7656 33.5103 20.1987C33.6124 20.8116 34.1418 21.2388 34.7454 21.2388C34.8197 21.2388 34.8847 21.2295 34.959 21.2202C35.6462 21.1088 36.1012 20.4587 35.9898 19.7715C35.4883 16.8277 34.0953 14.1439 31.9687 12.0173C29.8421 9.89066 27.1583 8.49769 24.2145 7.99622C23.5273 7.88478 22.8865 8.33982 22.7658 9.01773C22.6451 9.69565 23.0908 10.355 23.778 10.4664Z" fill="#F9F9F9"/>
<path id="Vector_3" d="M43.948 19.4093C43.1215 14.5618 40.837 10.1507 37.3267 6.64039C33.8164 3.13009 29.4053 0.845612 24.5577 0.019113C23.8798 -0.101612 23.2391 0.362714 23.1183 1.04063C23.0069 1.72783 23.4619 2.3686 24.1491 2.48932C28.4766 3.22296 32.4234 5.27527 35.5622 8.40482C38.7011 11.5437 40.7441 15.4904 41.4778 19.8179C41.5799 20.4308 42.1092 20.858 42.7129 20.858C42.7871 20.858 42.8522 20.8487 42.9264 20.8394C43.6044 20.7373 44.0687 20.0872 43.948 19.4093Z" fill="#F9F9F9"/>
</g>
</g>
</g>
</g>
<defs>
<clipPath id="clip0_270_220">
<rect width="44" height="44" fill="white"/>
</clipPath>
</defs>
</svg>
