<svg width="58" height="58" viewBox="0 0 58 58" fill="none" xmlns="http://www.w3.org/2000/svg">
<g id="email 1">
<path id="Vector" d="M48.8045 45.3885H9.19561C7.90815 45.387 6.67385 44.8749 5.76353 43.9644C4.8532 43.054 4.34119 41.8197 4.33984 40.5322V16.0702C4.34119 14.7827 4.8532 13.5484 5.76353 12.6379C6.67385 11.7275 7.90815 11.2154 9.19561 11.2139H48.8045C50.092 11.2154 51.3263 11.7275 52.2366 12.6379C53.1469 13.5484 53.6589 14.7827 53.6603 16.0702V40.5322C53.6589 41.8197 53.1469 43.054 52.2366 43.9644C51.3263 44.8749 50.092 45.387 48.8045 45.3885ZM9.19561 13.0699C8.4002 13.0708 7.63763 13.3872 7.07524 13.9497C6.51285 14.5121 6.19658 15.2747 6.19584 16.0702V40.5322C6.19658 41.3276 6.51285 42.0903 7.07524 42.6527C7.63763 43.2152 8.4002 43.5316 9.19561 43.5325H48.8045C49.5999 43.5316 50.3625 43.2152 50.9249 42.6527C51.4873 42.0903 51.8035 41.3276 51.8043 40.5322V16.0702C51.8035 15.2747 51.4873 14.5121 50.9249 13.9497C50.3625 13.3872 49.5999 13.0708 48.8045 13.0699H9.19561Z" fill="#F9F9F9"/>
<path id="Vector_2" d="M29.0006 33.7625C28.7744 33.7626 28.5559 33.6801 28.3863 33.5305L6.02148 13.7882L7.24969 12.3962L29.0006 31.5984L50.7525 12.3986L51.9807 13.7906L29.6159 33.5328C29.4458 33.6821 29.2269 33.7638 29.0006 33.7625Z" fill="#F9F9F9"/>
<path id="Vector_3" d="M5.51562 42.4742L20.5401 25.3555L21.9358 26.5804L6.91134 43.6992L5.51562 42.4742Z" fill="#F9F9F9"/>
<path id="Vector_4" d="M36.1113 26.5624L37.507 25.3375L52.5318 42.4566L51.1361 43.6815L36.1113 26.5624Z" fill="#F9F9F9"/>
</g>
</svg>
