<svg width="44" height="44" viewBox="0 0 44 44" fill="none" xmlns="http://www.w3.org/2000/svg">
<g id="006-pin 1">
<g id="Group">
<g id="Group_2">
<g id="Group_3">
<path id="Vector" d="M21.9999 0C13.0374 0 5.74609 7.29127 5.74609 16.2538C5.74609 19.2043 7.06934 22.3777 7.1248 22.5115C7.55218 23.5259 8.39546 25.1016 9.00355 26.0252L20.1479 42.911C20.604 43.6032 21.279 44 21.9999 44C22.7208 44 23.3958 43.6032 23.8519 42.9119L34.9972 26.0252C35.6062 25.1016 36.4486 23.5259 36.8759 22.5115C36.9314 22.3786 38.2537 19.2053 38.2537 16.2538C38.2537 7.29127 30.9624 0 21.9999 0ZM35.1129 21.7696C34.7314 22.6788 33.9464 24.1445 33.4005 24.9725L22.2552 41.8593C22.0353 42.193 21.9655 42.193 21.7456 41.8593L10.6002 24.9725C10.0543 24.1445 9.26934 22.6779 8.88786 21.7686C8.8716 21.7294 7.65831 18.8085 7.65831 16.2538C7.65831 8.34585 14.0919 1.91221 21.9999 1.91221C29.9079 1.91221 36.3415 8.34585 36.3415 16.2538C36.3415 18.8123 35.1253 21.7409 35.1129 21.7696Z" fill="#F9F9F9"/>
<path id="Vector_2" d="M21.9995 7.64978C17.2543 7.64978 13.3945 11.5105 13.3945 16.2547C13.3945 20.9989 17.2543 24.8597 21.9995 24.8597C26.7446 24.8597 30.6044 20.9989 30.6044 16.2547C30.6044 11.5105 26.7446 7.64978 21.9995 7.64978ZM21.9995 22.9475C18.3099 22.9475 15.3067 19.9453 15.3067 16.2547C15.3067 12.5642 18.3099 9.56199 21.9995 9.56199C25.6891 9.56199 28.6922 12.5642 28.6922 16.2547C28.6922 19.9453 25.6891 22.9475 21.9995 22.9475Z" fill="#F9F9F9"/>
</g>
</g>
</g>
</g>
</svg>
