<svg width="12" height="12" viewBox="0 0 12 12" fill="none" xmlns="http://www.w3.org/2000/svg">
<path d="M0.919894 9.97232L0.389563 10.5027L1.45022 11.5633L1.98055 11.033L0.919894 9.97232ZM10.9511 2.0624C11.244 1.76951 11.244 1.29464 10.9511 1.00174C10.6582 0.708849 10.1834 0.708849 9.89048 1.00174L10.9511 2.0624ZM4.05069 1.00174L3.52036 0.471412L2.4597 1.53207L2.99003 2.0624L4.05069 1.00174ZM10.5631 2.25159C10.9605 2.13471 11.1879 1.71782 11.071 1.32044C10.9541 0.923055 10.5372 0.695668 10.1398 0.812552L10.5631 2.25159ZM9.85577 8.9282L10.3861 9.45853L11.4468 8.39787L10.9164 7.86754L9.85577 8.9282ZM1.98055 11.033L10.9164 2.09711L9.85577 1.03645L0.919894 9.97232L1.98055 11.033ZM10.9164 2.09711L10.9511 2.0624L9.89048 1.00174L9.85577 1.03645L10.9164 2.09711ZM2.99003 2.0624C3.56242 2.6348 4.39645 2.85461 5.16658 2.9332C5.96028 3.01419 6.82919 2.95877 7.61351 2.85821C8.40337 2.75694 9.13805 2.60575 9.67308 2.48073C9.9414 2.41804 10.1614 2.36147 10.3154 2.32028C10.3925 2.29967 10.4531 2.28288 10.4951 2.27106C10.5161 2.26514 10.5324 2.26047 10.5438 2.25718C10.5496 2.25553 10.554 2.25423 10.5573 2.2533C10.5589 2.25283 10.5602 2.25245 10.5611 2.25217C10.5616 2.25202 10.562 2.2519 10.5624 2.25181C10.5625 2.25176 10.5627 2.25171 10.5628 2.25168C10.5629 2.25164 10.5631 2.25159 10.3515 1.53207C10.1398 0.812552 10.1399 0.812522 10.14 0.812497C10.14 0.812497 10.1401 0.812478 10.1401 0.812478C10.1401 0.812476 10.14 0.812498 10.1398 0.812543C10.1395 0.812633 10.1389 0.812815 10.138 0.813086C10.1361 0.813631 10.133 0.814533 10.1287 0.815778C10.12 0.818267 10.1066 0.822122 10.0885 0.827203C10.0524 0.837364 9.99813 0.852415 9.92779 0.871229C9.78705 0.90888 9.58258 0.961478 9.33178 1.02008C8.82857 1.13766 8.14659 1.27758 7.42275 1.37039C6.69338 1.4639 5.95155 1.50551 5.31886 1.44095C4.6626 1.37398 4.25459 1.20565 4.05069 1.00174L2.99003 2.0624ZM10.3861 1.56678C9.69571 1.27375 9.69563 1.27394 9.69554 1.27415C9.6955 1.27424 9.69541 1.27447 9.69533 1.27466C9.69517 1.27504 9.69498 1.27549 9.69476 1.27602C9.69431 1.27706 9.69375 1.27841 9.69306 1.28004C9.69169 1.2833 9.68985 1.28772 9.68755 1.29326C9.68295 1.30435 9.67653 1.31996 9.66848 1.33985C9.65239 1.37962 9.62977 1.43658 9.60212 1.50886C9.54686 1.6533 9.47132 1.85956 9.38771 2.11265C9.22117 2.61683 9.01938 3.31665 8.88404 4.08969C8.74952 4.85808 8.67495 5.73019 8.78362 6.56825C8.89246 7.40765 9.19288 8.26531 9.85577 8.9282L10.9164 7.86754C10.5616 7.5127 10.3531 7.00761 10.2712 6.37536C10.189 5.74176 10.2417 5.03332 10.3616 4.34836C10.4807 3.66807 10.6605 3.04175 10.812 2.58315C10.8874 2.35484 10.955 2.17054 11.0031 2.04477C11.0271 1.98194 11.0463 1.93388 11.059 1.90241C11.0654 1.88668 11.0701 1.87511 11.0731 1.86793C11.0746 1.86434 11.0756 1.86185 11.0762 1.86048C11.0765 1.8598 11.0767 1.8594 11.0767 1.85929C11.0767 1.85923 11.0767 1.85924 11.0767 1.85933C11.0767 1.85937 11.0766 1.85949 11.0766 1.85951C11.0766 1.85965 11.0765 1.8598 10.3861 1.56678Z" fill="#070E06"/>
</svg>
